<svg xmlns="http://www.w3.org/2000/svg" viewBox="0 0 902.38 902.38"><defs><style>.cls-1{fill:#505158;}.cls-2{fill:#fff;}</style></defs><g id="Layer_2" data-name="Layer 2"><g id="_ÎÓÈ_1" data-name="—ÎÓÈ_1"><circle class="cls-1" cx="451.19" cy="451.19" r="419.02"/><path class="cls-2" d="M451.19,516.1A241.55,241.55,0,0,0,230.44,659.89a24.58,24.58,0,1,0,45,19.88,192.19,192.19,0,0,1,350.4-2.62,24.58,24.58,0,1,0,44.65-20.55A241.28,241.28,0,0,0,451.19,516.1Z"/><circle class="cls-2" cx="297.56" cy="342.85" r="68.94" transform="matrix(0.97, -0.23, 0.23, 0.97, -70.81, 77.54)"/><circle class="cls-2" cx="603.71" cy="342.85" r="68.94" transform="matrix(0.97, -0.23, 0.23, 0.97, -62.62, 147.88)"/><path class="cls-1" d="M451.19,902.38a454.62,454.62,0,0,1-90.9-9.17A448.82,448.82,0,0,1,198.9,825.3,452.36,452.36,0,0,1,35.47,626.82a449.1,449.1,0,0,1-26.3-84.74A451.54,451.54,0,0,1,542.08,9.17a448.84,448.84,0,0,1,161.39,67.9A452.45,452.45,0,0,1,866.91,275.56a449.23,449.23,0,0,1,26.3,84.73,455.07,455.07,0,0,1,0,181.79A448.62,448.62,0,0,1,825.3,703.47,452.52,452.52,0,0,1,626.82,866.91a449.1,449.1,0,0,1-84.74,26.3A454.44,454.44,0,0,1,451.19,902.38Zm0-838c-213.32,0-386.86,173.54-386.86,386.86S237.87,838.05,451.19,838.05,838.05,664.5,838.05,451.19,664.5,64.33,451.19,64.33Z"/></g></g></svg>