<svg xmlns="http://www.w3.org/2000/svg" viewBox="0 0 902.38 902.38"><defs><style>.cls-1{fill:#505158;}.cls-2{fill:#fff;}</style></defs><g id="Layer_2" data-name="Layer 2"><g id="_ÎÓÈ_1" data-name="—ÎÓÈ_1"><circle class="cls-1" cx="451.19" cy="451.19" r="419.02"/><path class="cls-1" d="M451.19,902.38a454.62,454.62,0,0,1-90.9-9.17A448.82,448.82,0,0,1,198.9,825.3,452.36,452.36,0,0,1,35.47,626.82a449.1,449.1,0,0,1-26.3-84.74A451.54,451.54,0,0,1,542.08,9.17a448.84,448.84,0,0,1,161.39,67.9A452.45,452.45,0,0,1,866.91,275.56a449.23,449.23,0,0,1,26.3,84.73,455.07,455.07,0,0,1,0,181.79A448.62,448.62,0,0,1,825.3,703.47,452.52,452.52,0,0,1,626.82,866.91a449.1,449.1,0,0,1-84.74,26.3A454.44,454.44,0,0,1,451.19,902.38Zm0-838c-213.32,0-386.86,173.54-386.86,386.86S237.87,838.05,451.19,838.05,838.05,664.5,838.05,451.19,664.5,64.33,451.19,64.33Z"/><polygon class="cls-2" points="672.65 395.52 630.87 353.74 672.65 311.95 630.87 270.17 589.08 311.95 547.3 270.17 505.51 311.95 547.3 353.74 505.51 395.52 547.3 437.31 589.08 395.52 630.87 437.31 672.65 395.52"/><polygon class="cls-2" points="395.76 395.52 353.98 353.74 395.76 311.95 353.98 270.17 312.19 311.95 270.4 270.17 228.62 311.95 270.4 353.74 228.62 395.52 270.4 437.31 312.19 395.52 353.98 437.31 395.76 395.52"/><path class="cls-2" d="M660.74,689.52,557.52,678.3a984.31,984.31,0,0,0-212.66,0L241.63,689.52c0-85.5,93.82-154.81,209.56-154.81S660.74,604,660.74,689.52Z"/></g></g></svg>