<svg xmlns="http://www.w3.org/2000/svg" viewBox="0 0 902.38 902.38"><defs><style>.cls-1{fill:#505158;}.cls-2{fill:#fff;}</style></defs><g id="Layer_2" data-name="Layer 2"><g id="_ÎÓÈ_1" data-name="—ÎÓÈ_1"><circle class="cls-1" cx="451.19" cy="451.19" r="419.02"/><path class="cls-1" d="M451.19,902.38a454.62,454.62,0,0,1-90.9-9.17A448.82,448.82,0,0,1,198.9,825.3,452.36,452.36,0,0,1,35.47,626.82a449.1,449.1,0,0,1-26.3-84.74A451.54,451.54,0,0,1,542.08,9.17a448.84,448.84,0,0,1,161.39,67.9A452.45,452.45,0,0,1,866.91,275.56a449.23,449.23,0,0,1,26.3,84.73,455.07,455.07,0,0,1,0,181.79A448.62,448.62,0,0,1,825.3,703.47,452.52,452.52,0,0,1,626.82,866.91a449.1,449.1,0,0,1-84.74,26.3A454.44,454.44,0,0,1,451.19,902.38Zm0-838c-213.32,0-386.86,173.54-386.86,386.86S237.87,838.05,451.19,838.05,838.05,664.5,838.05,451.19,664.5,64.33,451.19,64.33Z"/><polygon class="cls-2" points="698.84 395.52 605.41 302.1 511.98 395.52 558.7 442.24 605.41 395.52 652.13 442.24 698.84 395.52"/><polygon class="cls-2" points="389.29 395.52 295.86 302.1 202.43 395.52 249.15 442.24 295.86 395.52 342.57 442.24 389.29 395.52"/><path class="cls-2" d="M660.74,534.71,557.52,545.93a983,983,0,0,1-212.66,0L241.63,534.71c0,85.5,93.82,154.81,209.56,154.81S660.74,620.21,660.74,534.71Z"/></g></g></svg>